<svg width="150" height="150" viewBox="0 0 150 150" fill="none" xmlns="http://www.w3.org/2000/svg">
<rect width="150" height="150" rx="10" fill="#193D71"/>
<path d="M37.7697 87.45C35.6097 87.45 33.7447 86.98 32.1747 86.04C30.6147 85.1 29.4097 83.785 28.5597 82.095C27.7197 80.405 27.2997 78.44 27.2997 76.2C27.2997 73.96 27.7197 71.995 28.5597 70.305C29.4097 68.615 30.6147 67.3 32.1747 66.36C33.7447 65.42 35.6097 64.95 37.7697 64.95C39.9297 64.95 41.7897 65.42 43.3497 66.36C44.9197 67.3 46.1247 68.615 46.9647 70.305C47.8147 71.995 48.2397 73.96 48.2397 76.2C48.2397 78.44 47.8147 80.405 46.9647 82.095C46.1247 83.785 44.9197 85.1 43.3497 86.04C41.7897 86.98 39.9297 87.45 37.7697 87.45ZM37.7697 83.61C39.1397 83.63 40.2797 83.335 41.1897 82.725C42.0997 82.115 42.7797 81.25 43.2297 80.13C43.6897 79.01 43.9197 77.7 43.9197 76.2C43.9197 74.7 43.6897 73.4 43.2297 72.3C42.7797 71.2 42.0997 70.345 41.1897 69.735C40.2797 69.125 39.1397 68.81 37.7697 68.79C36.3997 68.77 35.2597 69.065 34.3497 69.675C33.4397 70.285 32.7547 71.15 32.2947 72.27C31.8447 73.39 31.6197 74.7 31.6197 76.2C31.6197 77.7 31.8447 79 32.2947 80.1C32.7547 81.2 33.4397 82.055 34.3497 82.665C35.2597 83.275 36.3997 83.59 37.7697 83.61ZM62.2741 87V79.35C62.2741 78.98 62.2541 78.51 62.2141 77.94C62.1741 77.36 62.0491 76.78 61.8391 76.2C61.6291 75.62 61.2841 75.135 60.8041 74.745C60.3341 74.355 59.6641 74.16 58.7941 74.16C58.4441 74.16 58.0691 74.215 57.6691 74.325C57.2691 74.435 56.8941 74.65 56.5441 74.97C56.1941 75.28 55.9041 75.74 55.6741 76.35C55.4541 76.96 55.3441 77.77 55.3441 78.78L53.0041 77.67C53.0041 76.39 53.2641 75.19 53.7841 74.07C54.3041 72.95 55.0841 72.045 56.1241 71.355C57.1741 70.665 58.4941 70.32 60.0841 70.32C61.3541 70.32 62.3891 70.535 63.1891 70.965C63.9891 71.395 64.6091 71.94 65.0491 72.6C65.4991 73.26 65.8191 73.95 66.0091 74.67C66.1991 75.38 66.3141 76.03 66.3541 76.62C66.3941 77.21 66.4141 77.64 66.4141 77.91V87H62.2741ZM51.2041 87V70.8H54.8341V76.17H55.3441V87H51.2041ZM80.0264 87C78.9064 87.21 77.8064 87.3 76.7264 87.27C75.6564 87.25 74.6964 87.065 73.8464 86.715C73.0064 86.355 72.3664 85.78 71.9264 84.99C71.5264 84.25 71.3164 83.5 71.2964 82.74C71.2764 81.97 71.2664 81.1 71.2664 80.13V66.3H75.3464V79.89C75.3464 80.52 75.3514 81.09 75.3614 81.6C75.3814 82.1 75.4864 82.5 75.6764 82.8C76.0364 83.37 76.6114 83.68 77.4014 83.73C78.1914 83.78 79.0664 83.74 80.0264 83.61V87ZM68.5064 73.95V70.8H80.0264V73.95H68.5064ZM88.1365 87.45C86.9765 87.45 85.9915 87.23 85.1815 86.79C84.3815 86.34 83.7715 85.745 83.3515 85.005C82.9415 84.255 82.7365 83.43 82.7365 82.53C82.7365 81.78 82.8515 81.095 83.0815 80.475C83.3115 79.855 83.6815 79.31 84.1915 78.84C84.7115 78.36 85.4065 77.96 86.2765 77.64C86.8765 77.42 87.5915 77.225 88.4215 77.055C89.2515 76.885 90.1915 76.725 91.2415 76.575C92.2915 76.415 93.4465 76.24 94.7065 76.05L93.2365 76.86C93.2365 75.9 93.0065 75.195 92.5465 74.745C92.0865 74.295 91.3165 74.07 90.2365 74.07C89.6365 74.07 89.0115 74.215 88.3615 74.505C87.7115 74.795 87.2565 75.31 86.9965 76.05L83.3065 74.88C83.7165 73.54 84.4865 72.45 85.6165 71.61C86.7465 70.77 88.2865 70.35 90.2365 70.35C91.6665 70.35 92.9365 70.57 94.0465 71.01C95.1565 71.45 95.9965 72.21 96.5665 73.29C96.8865 73.89 97.0765 74.49 97.1365 75.09C97.1965 75.69 97.2265 76.36 97.2265 77.1V87H93.6565V83.67L94.1665 84.36C93.3765 85.45 92.5215 86.24 91.6015 86.73C90.6915 87.21 89.5365 87.45 88.1365 87.45ZM89.0065 84.24C89.7565 84.24 90.3865 84.11 90.8965 83.85C91.4165 83.58 91.8265 83.275 92.1265 82.935C92.4365 82.595 92.6465 82.31 92.7565 82.08C92.9665 81.64 93.0865 81.13 93.1165 80.55C93.1565 79.96 93.1765 79.47 93.1765 79.08L94.3765 79.38C93.1665 79.58 92.1865 79.75 91.4365 79.89C90.6865 80.02 90.0815 80.14 89.6215 80.25C89.1615 80.36 88.7565 80.48 88.4065 80.61C88.0065 80.77 87.6815 80.945 87.4315 81.135C87.1915 81.315 87.0115 81.515 86.8915 81.735C86.7815 81.955 86.7265 82.2 86.7265 82.47C86.7265 82.84 86.8165 83.16 86.9965 83.43C87.1865 83.69 87.4515 83.89 87.7915 84.03C88.1315 84.17 88.5365 84.24 89.0065 84.24ZM101.127 87V70.8H104.727V74.76L104.337 74.25C104.547 73.69 104.827 73.18 105.177 72.72C105.527 72.26 105.957 71.88 106.467 71.58C106.857 71.34 107.282 71.155 107.742 71.025C108.202 70.885 108.677 70.8 109.167 70.77C109.657 70.73 110.147 70.74 110.637 70.8V74.61C110.187 74.47 109.662 74.425 109.062 74.475C108.472 74.515 107.937 74.65 107.457 74.88C106.977 75.1 106.572 75.395 106.242 75.765C105.912 76.125 105.662 76.555 105.492 77.055C105.322 77.545 105.237 78.1 105.237 78.72V87H101.127ZM113.79 68.55V64.95H117.87V68.55H113.79ZM113.79 87V70.8H117.87V87H113.79Z" fill="white"/>
<path d="M32.1747 86.04L32.0715 86.2113L32.072 86.2116L32.1747 86.04ZM28.5597 82.095L28.3806 82.184L28.3811 82.1849L28.5597 82.095ZM28.5597 70.305L28.3811 70.2151L28.3806 70.216L28.5597 70.305ZM32.1747 66.36L32.072 66.1884L32.0715 66.1887L32.1747 66.36ZM43.3497 66.36L43.2465 66.5313L43.247 66.5316L43.3497 66.36ZM46.9647 70.305L46.7856 70.394L46.7861 70.3949L46.9647 70.305ZM46.9647 82.095L46.7861 82.0051L46.7856 82.006L46.9647 82.095ZM43.3497 86.04L43.247 85.8684L43.2465 85.8687L43.3497 86.04ZM37.7697 83.61L37.7668 83.81L37.7697 83.61ZM41.1897 82.725L41.3011 82.8911L41.3011 82.8911L41.1897 82.725ZM43.2297 80.13L43.0447 80.054L43.0442 80.0554L43.2297 80.13ZM43.2297 72.3L43.0446 72.3757L43.0452 72.3772L43.2297 72.3ZM41.1897 69.735L41.3011 69.5689L41.3011 69.5689L41.1897 69.735ZM37.7697 68.79L37.7727 68.59L37.7727 68.59L37.7697 68.79ZM32.2947 72.27L32.1097 72.194L32.1092 72.1954L32.2947 72.27ZM32.2947 80.1L32.1096 80.1757L32.1102 80.1772L32.2947 80.1ZM34.3497 82.665L34.2384 82.8311L34.2384 82.8311L34.3497 82.665ZM37.7697 87.25C35.6393 87.25 33.8112 86.7867 32.2775 85.8684L32.072 86.2116C33.6783 87.1733 35.5801 87.65 37.7697 87.65V87.25ZM32.278 85.8687C30.7516 84.949 29.5721 83.6628 28.7384 82.0051L28.3811 82.1849C29.2473 83.9072 30.4779 85.251 32.0715 86.2113L32.278 85.8687ZM28.7388 82.006C27.9149 80.3484 27.4997 78.4148 27.4997 76.2H27.0997C27.0997 78.4652 27.5246 80.4616 28.3806 82.184L28.7388 82.006ZM27.4997 76.2C27.4997 73.9852 27.9149 72.0516 28.7388 70.394L28.3806 70.216C27.5246 71.9384 27.0997 73.9348 27.0997 76.2H27.4997ZM28.7384 70.3949C29.5721 68.7372 30.7516 67.451 32.278 66.5313L32.0715 66.1887C30.4779 67.149 29.2473 68.4928 28.3811 70.2151L28.7384 70.3949ZM32.2775 66.5316C33.8112 65.6133 35.6393 65.15 37.7697 65.15V64.75C35.5801 64.75 33.6783 65.2267 32.072 66.1884L32.2775 66.5316ZM37.7697 65.15C39.9002 65.15 41.723 65.6133 43.2465 66.5313L43.453 66.1887C41.8564 65.2267 39.9593 64.75 37.7697 64.75V65.15ZM43.247 66.5316C44.7831 67.4513 45.9621 68.7371 46.7856 70.394L47.1438 70.216C46.2874 68.4929 45.0564 67.1487 43.4525 66.1884L43.247 66.5316ZM46.7861 70.3949C47.6197 72.0523 48.0397 73.9855 48.0397 76.2H48.4397C48.4397 73.9345 48.0098 71.9377 47.1434 70.2151L46.7861 70.3949ZM48.0397 76.2C48.0397 78.4145 47.6197 80.3477 46.7861 82.0051L47.1434 82.1849C48.0098 80.4623 48.4397 78.4655 48.4397 76.2H48.0397ZM46.7856 82.006C45.9621 83.6629 44.7831 84.9487 43.247 85.8684L43.4525 86.2116C45.0564 85.2513 46.2874 83.9071 47.1438 82.184L46.7856 82.006ZM43.2465 85.8687C41.723 86.7867 39.9002 87.25 37.7697 87.25V87.65C39.9593 87.65 41.8564 87.1733 43.453 86.2113L43.2465 85.8687ZM37.7668 83.81C39.1672 83.8304 40.3497 83.5289 41.3011 82.8911L41.0784 82.5589C40.2098 83.1411 39.1123 83.4296 37.7727 83.41L37.7668 83.81ZM41.3011 82.8911C42.2479 82.2565 42.9519 81.3579 43.4153 80.2046L43.0442 80.0554C42.6075 81.1421 41.9516 81.9735 41.0784 82.5589L41.3011 82.8911ZM43.4147 80.206C43.8867 79.0569 44.1197 77.72 44.1197 76.2H43.7197C43.7197 77.68 43.4928 78.9631 43.0447 80.054L43.4147 80.206ZM44.1197 76.2C44.1197 74.6801 43.8867 73.3527 43.4143 72.2228L43.0452 72.3772C43.4927 73.4473 43.7197 74.7199 43.7197 76.2H44.1197ZM43.4148 72.2243C42.9511 71.0907 42.2469 70.2029 41.3011 69.5689L41.0784 69.9011C41.9525 70.4871 42.6083 71.3093 43.0446 72.3757L43.4148 72.2243ZM41.3011 69.5689C40.3518 68.9325 39.1716 68.6104 37.7727 68.59L37.7668 68.99C39.1078 69.0096 40.2077 69.3175 41.0784 69.9011L41.3011 69.5689ZM37.7727 68.59C36.3723 68.5696 35.1898 68.8711 34.2384 69.5089L34.4611 69.8411C35.3297 69.2589 36.4272 68.9704 37.7668 68.99L37.7727 68.59ZM34.2384 69.5089C33.292 70.1433 32.5832 71.0413 32.1097 72.194L32.4797 72.346C32.9263 71.2587 33.5875 70.4267 34.4611 69.8411L34.2384 69.5089ZM32.1092 72.1954C31.6476 73.3441 31.4197 74.6804 31.4197 76.2H31.8197C31.8197 74.7196 32.0418 73.4359 32.4803 72.3446L32.1092 72.1954ZM31.4197 76.2C31.4197 77.7194 31.6476 79.0463 32.1096 80.1757L32.4798 80.0243C32.0419 78.9537 31.8197 77.6806 31.8197 76.2H31.4197ZM32.1102 80.1772C32.584 81.31 33.2929 82.1974 34.2384 82.8311L34.4611 82.4989C33.5866 81.9126 32.9255 81.09 32.4793 80.0228L32.1102 80.1772ZM34.2384 82.8311C35.1877 83.4675 36.3678 83.7896 37.7668 83.81L37.7727 83.41C36.4316 83.3904 35.3318 83.0825 34.4611 82.4989L34.2384 82.8311ZM62.2741 87H62.0741V87.2H62.2741V87ZM62.2141 77.94L62.0146 77.9538L62.0146 77.954L62.2141 77.94ZM61.8391 76.2L62.0272 76.1319L62.0272 76.1319L61.8391 76.2ZM60.8041 74.745L60.6764 74.8989L60.678 74.9002L60.8041 74.745ZM57.6691 74.325L57.7221 74.5178L57.7221 74.5178L57.6691 74.325ZM56.5441 74.97L56.6767 75.1197L56.6791 75.1176L56.5441 74.97ZM55.6741 76.35L55.487 76.2794L55.486 76.2821L55.6741 76.35ZM55.3441 78.78L55.2584 78.9607L55.5441 79.0962V78.78H55.3441ZM53.0041 77.67H52.8041V77.7965L52.9184 77.8507L53.0041 77.67ZM53.7841 74.07L53.6027 73.9858L53.6027 73.9858L53.7841 74.07ZM56.1241 71.355L56.0143 71.1879L56.0135 71.1883L56.1241 71.355ZM63.1891 70.965L63.0944 71.1412L63.0944 71.1412L63.1891 70.965ZM65.0491 72.6L64.8827 72.7109L64.8839 72.7127L65.0491 72.6ZM66.0091 74.67L65.8157 74.721L65.8159 74.7217L66.0091 74.67ZM66.3541 76.62L66.1546 76.6335L66.1546 76.6335L66.3541 76.62ZM66.4141 87V87.2H66.6141V87H66.4141ZM51.2041 87H51.0041V87.2H51.2041V87ZM51.2041 70.8V70.6H51.0041V70.8H51.2041ZM54.8341 70.8H55.0341V70.6H54.8341V70.8ZM54.8341 76.17H54.6341V76.37H54.8341V76.17ZM55.3441 76.17H55.5441V75.97H55.3441V76.17ZM55.3441 87V87.2H55.5441V87H55.3441ZM62.4741 87V79.35H62.0741V87H62.4741ZM62.4741 79.35C62.4741 78.9735 62.4538 78.4984 62.4136 77.926L62.0146 77.954C62.0544 78.5215 62.0741 78.9865 62.0741 79.35H62.4741ZM62.4136 77.9262C62.3723 77.3266 62.2431 76.7283 62.0272 76.1319L61.6511 76.2681C61.8551 76.8317 61.9759 77.3934 62.0146 77.9538L62.4136 77.9262ZM62.0272 76.1319C61.8048 75.5177 61.4383 75.0026 60.9302 74.5898L60.678 74.9002C61.1299 75.2674 61.4535 75.7223 61.6511 76.2681L62.0272 76.1319ZM60.9318 74.5911C60.4134 74.1609 59.6913 73.96 58.7941 73.96V74.36C59.6369 74.36 60.2548 74.5491 60.6764 74.8989L60.9318 74.5911ZM58.7941 73.96C58.4232 73.96 58.0303 74.0183 57.6161 74.1322L57.7221 74.5178C58.108 74.4117 58.465 74.36 58.7941 74.36V73.96ZM57.6161 74.1322C57.1815 74.2517 56.7791 74.4841 56.4092 74.8224L56.6791 75.1176C57.0091 74.8159 57.3568 74.6183 57.7221 74.5178L57.6161 74.1322ZM56.4115 74.8203C56.0295 75.1587 55.7242 75.6503 55.487 76.2794L55.8613 76.4206C56.0841 75.8297 56.3588 75.4013 56.6767 75.1197L56.4115 74.8203ZM55.486 76.2821C55.255 76.9225 55.1441 77.7583 55.1441 78.78H55.5441C55.5441 77.7817 55.6532 76.9974 55.8623 76.4179L55.486 76.2821ZM55.4298 78.5993L53.0898 77.4893L52.9184 77.8507L55.2584 78.9607L55.4298 78.5993ZM53.2041 77.67C53.2041 76.418 53.4582 75.2469 53.9655 74.1542L53.6027 73.9858C53.07 75.1331 52.8041 76.362 52.8041 77.67H53.2041ZM53.9655 74.1542C54.4698 73.0681 55.2251 72.1915 56.2347 71.5217L56.0135 71.1883C54.9431 71.8985 54.1384 72.8319 53.6027 73.9858L53.9655 74.1542ZM56.2339 71.5221C57.2437 70.8586 58.5228 70.52 60.0841 70.52V70.12C58.4654 70.12 57.1046 70.4714 56.0143 71.1879L56.2339 71.5221ZM60.0841 70.52C61.3335 70.52 62.3328 70.7318 63.0944 71.1412L63.2838 70.7888C62.4454 70.3382 61.3747 70.12 60.0841 70.12V70.52ZM63.0944 71.1412C63.8698 71.5579 64.4634 72.082 64.8827 72.7109L65.2155 72.4891C64.7548 71.798 64.1085 71.2321 63.2838 70.7888L63.0944 71.1412ZM64.8839 72.7127C65.322 73.3552 65.6319 74.0246 65.8157 74.721L66.2025 74.619C66.0063 73.8754 65.6762 73.1648 65.2144 72.4873L64.8839 72.7127ZM65.8159 74.7217C66.0033 75.4221 66.1156 76.0591 66.1546 76.6335L66.5537 76.6065C66.5126 76.0009 66.3949 75.3379 66.2023 74.6183L65.8159 74.7217ZM66.1546 76.6335C66.1945 77.223 66.2141 77.6473 66.2141 77.91H66.6141C66.6141 77.6327 66.5937 77.197 66.5537 76.6065L66.1546 76.6335ZM66.2141 77.91V87H66.6141V77.91H66.2141ZM66.4141 86.8H62.2741V87.2H66.4141V86.8ZM51.4041 87V70.8H51.0041V87H51.4041ZM51.2041 71H54.8341V70.6H51.2041V71ZM54.6341 70.8V76.17H55.0341V70.8H54.6341ZM54.8341 76.37H55.3441V75.97H54.8341V76.37ZM55.1441 76.17V87H55.5441V76.17H55.1441ZM55.3441 86.8H51.2041V87.2H55.3441V86.8ZM80.0264 87L80.0632 87.1966L80.2264 87.166V87H80.0264ZM76.7264 87.27L76.7319 87.0701L76.7301 87.07L76.7264 87.27ZM73.8464 86.715L73.7676 86.8988L73.7702 86.8999L73.8464 86.715ZM71.9264 84.99L71.7504 85.0851L71.7517 85.0873L71.9264 84.99ZM71.2964 82.74L71.0964 82.7452L71.0964 82.7453L71.2964 82.74ZM71.2664 66.3V66.1H71.0664V66.3H71.2664ZM75.3464 66.3H75.5464V66.1H75.3464V66.3ZM75.3614 81.6L75.1614 81.6039L75.1615 81.608L75.3614 81.6ZM75.6764 82.8L75.8455 82.6932L75.8453 82.693L75.6764 82.8ZM80.0264 83.61H80.2264V83.3811L79.9995 83.4118L80.0264 83.61ZM68.5064 73.95H68.3064V74.15H68.5064V73.95ZM68.5064 70.8V70.6H68.3064V70.8H68.5064ZM80.0264 70.8H80.2264V70.6H80.0264V70.8ZM80.0264 73.95V74.15H80.2264V73.95H80.0264ZM79.9895 86.8034C78.8827 87.0109 77.797 87.0997 76.7319 87.0701L76.7208 87.4699C77.8158 87.5003 78.93 87.4091 80.0632 87.1966L79.9895 86.8034ZM76.7301 87.07C75.681 87.0504 74.7461 86.8692 73.9225 86.5301L73.7702 86.8999C74.6467 87.2608 75.6318 87.4496 76.7226 87.47L76.7301 87.07ZM73.9252 86.5312C73.1254 86.1884 72.5193 85.6436 72.1011 84.8927L71.7517 85.0873C72.2134 85.9164 72.8874 86.5216 73.7676 86.8988L73.9252 86.5312ZM72.1023 84.8949C71.7157 84.1796 71.5154 83.4601 71.4963 82.7347L71.0964 82.7453C71.1174 83.5399 71.3371 84.3204 71.7504 85.0851L72.1023 84.8949ZM71.4963 82.7348C71.4764 81.9669 71.4664 81.0987 71.4664 80.13H71.0664C71.0664 81.1013 71.0764 81.9731 71.0964 82.7452L71.4963 82.7348ZM71.4664 80.13V66.3H71.0664V80.13H71.4664ZM71.2664 66.5H75.3464V66.1H71.2664V66.5ZM75.1464 66.3V79.89H75.5464V66.3H75.1464ZM75.1464 79.89C75.1464 80.521 75.1514 81.0924 75.1614 81.6039L75.5613 81.5961C75.5514 81.0876 75.5464 80.519 75.5464 79.89H75.1464ZM75.1615 81.608C75.1824 82.1295 75.2924 82.5676 75.5074 82.907L75.8453 82.693C75.6803 82.4324 75.5804 82.0705 75.5612 81.592L75.1615 81.608ZM75.5073 82.9068C75.9078 83.541 76.5474 83.8764 77.3887 83.9296L77.414 83.5304C76.6753 83.4836 76.1649 83.199 75.8455 82.6932L75.5073 82.9068ZM77.3887 83.9296C78.1945 83.9806 79.0829 83.9396 80.0532 83.8082L79.9995 83.4118C79.0498 83.5404 78.1883 83.5794 77.414 83.5304L77.3887 83.9296ZM79.8264 83.61V87H80.2264V83.61H79.8264ZM68.7064 73.95V70.8H68.3064V73.95H68.7064ZM68.5064 71H80.0264V70.6H68.5064V71ZM79.8264 70.8V73.95H80.2264V70.8H79.8264ZM80.0264 73.75H68.5064V74.15H80.0264V73.75ZM85.1815 86.79L85.0834 86.9643L85.086 86.9657L85.1815 86.79ZM83.3515 85.005L83.1759 85.1009L83.1775 85.1037L83.3515 85.005ZM83.0815 80.475L82.8939 80.4054L82.8939 80.4054L83.0815 80.475ZM84.1915 78.84L84.327 78.9871L84.3271 78.987L84.1915 78.84ZM86.2765 77.64L86.2076 77.4522L86.2074 77.4523L86.2765 77.64ZM88.4215 77.055L88.3813 76.8591L88.3813 76.8591L88.4215 77.055ZM91.2415 76.575L91.2697 76.773L91.2716 76.7727L91.2415 76.575ZM94.7065 76.05L94.803 76.2252L94.6766 75.8522L94.7065 76.05ZM93.2365 76.86H93.0365V77.1986L93.333 77.0352L93.2365 76.86ZM88.3615 74.505L88.28 74.3224L88.28 74.3224L88.3615 74.505ZM86.9965 76.05L86.936 76.2406L87.1209 76.2993L87.1851 76.1163L86.9965 76.05ZM83.3065 74.88L83.1152 74.8215L83.0573 75.0108L83.246 75.0706L83.3065 74.88ZM94.0465 71.01L94.1202 70.8241L94.1202 70.8241L94.0465 71.01ZM96.5665 73.29L96.3896 73.3834L96.39 73.3841L96.5665 73.29ZM97.1365 75.09L97.3355 75.0701L97.3355 75.0701L97.1365 75.09ZM97.2265 87V87.2H97.4265V87H97.2265ZM93.6565 87H93.4565V87.2H93.6565V87ZM93.6565 83.67L93.8173 83.5511L93.4565 83.0629V83.67H93.6565ZM94.1665 84.36L94.3284 84.4774L94.4143 84.3588L94.3273 84.2411L94.1665 84.36ZM91.6015 86.73L91.6948 86.9069L91.6955 86.9065L91.6015 86.73ZM90.8965 83.85L90.9873 84.0282L90.9886 84.0275L90.8965 83.85ZM92.1265 82.935L91.9786 82.8002L91.9765 82.8027L92.1265 82.935ZM92.7565 82.08L92.9369 82.1663L92.9369 82.1661L92.7565 82.08ZM93.1165 80.55L92.9169 80.5365L92.9167 80.5397L93.1165 80.55ZM93.1765 79.08L93.225 78.886L92.9765 78.8238V79.08H93.1765ZM94.3765 79.38L94.4091 79.5773L94.425 79.186L94.3765 79.38ZM91.4365 79.89L91.4706 80.0871L91.4732 80.0866L91.4365 79.89ZM88.4065 80.61L88.3368 80.4225L88.3322 80.4243L88.4065 80.61ZM87.4315 81.135L87.5515 81.295L87.5525 81.2942L87.4315 81.135ZM86.8915 81.735L86.7158 81.6392L86.7126 81.6456L86.8915 81.735ZM86.9965 83.43L86.8299 83.541L86.835 83.548L86.9965 83.43ZM88.1365 87.25C87.0013 87.25 86.051 87.0347 85.2769 86.6143L85.086 86.9657C85.9319 87.4253 86.9516 87.65 88.1365 87.65V87.25ZM85.2795 86.6157C84.5086 86.1821 83.926 85.6122 83.5254 84.9063L83.1775 85.1037C83.6169 85.8778 84.2543 86.4979 85.0834 86.9643L85.2795 86.6157ZM83.5269 84.9091C83.1339 84.1901 82.9365 83.3983 82.9365 82.53H82.5365C82.5365 83.4617 82.749 84.3199 83.176 85.1009L83.5269 84.9091ZM82.9365 82.53C82.9365 81.8006 83.0483 81.1395 83.269 80.5446L82.8939 80.4054C82.6547 81.0505 82.5365 81.7594 82.5365 82.53H82.9365ZM83.269 80.5446C83.4875 79.9556 83.839 79.4368 84.327 78.9871L84.0559 78.6929C83.5239 79.1832 83.1354 79.7544 82.8939 80.4054L83.269 80.5446ZM84.3271 78.987C84.8228 78.5294 85.4929 78.1413 86.3455 77.8277L86.2074 77.4523C85.32 77.7787 84.6001 78.1906 84.0558 78.693L84.3271 78.987ZM86.3453 77.8278C86.9335 77.6121 87.6384 77.4195 88.4616 77.2509L88.3813 76.8591C87.5445 77.0305 86.8194 77.2279 86.2076 77.4522L86.3453 77.8278ZM88.4616 77.2509C89.2868 77.0819 90.2228 76.9226 91.2697 76.773L91.2132 76.377C90.1601 76.5274 89.2161 76.6881 88.3813 76.8591L88.4616 77.2509ZM91.2716 76.7727C92.3215 76.6127 93.4764 76.4378 94.7363 76.2478L94.6766 75.8522C93.4165 76.0422 92.2614 76.2173 91.2113 76.3773L91.2716 76.7727ZM94.6099 75.8748L93.1399 76.6848L93.333 77.0352L94.803 76.2252L94.6099 75.8748ZM93.4365 76.86C93.4365 75.8725 93.2002 75.1047 92.6863 74.602L92.4066 74.888C92.8127 75.2853 93.0365 75.9275 93.0365 76.86H93.4365ZM92.6863 74.602C92.1705 74.0974 91.3354 73.87 90.2365 73.87V74.27C91.2975 74.27 92.0024 74.4926 92.4066 74.888L92.6863 74.602ZM90.2365 73.87C89.6036 73.87 88.9509 74.023 88.28 74.3224L88.4429 74.6876C89.072 74.407 89.6693 74.27 90.2365 74.27V73.87ZM88.28 74.3224C87.5744 74.6372 87.0839 75.1977 86.8078 75.9837L87.1851 76.1163C87.429 75.4223 87.8486 74.9528 88.4429 74.6876L88.28 74.3224ZM87.0569 75.8594L83.3669 74.6894L83.246 75.0706L86.936 76.2406L87.0569 75.8594ZM83.4977 74.9385C83.8952 73.6395 84.6398 72.5852 85.7358 71.7705L85.4971 71.4495C84.3331 72.3148 83.5378 73.4405 83.1152 74.8215L83.4977 74.9385ZM85.7358 71.7705C86.8202 70.9644 88.3132 70.55 90.2365 70.55V70.15C88.2597 70.15 86.6727 70.5756 85.4971 71.4495L85.7358 71.7705ZM90.2365 70.55C91.6461 70.55 92.8904 70.7669 93.9728 71.1959L94.1202 70.8241C92.9826 70.3731 91.6868 70.15 90.2365 70.15V70.55ZM93.9728 71.1959C95.0373 71.6179 95.8413 72.3445 96.3896 73.3834L96.7433 73.1966C96.1516 72.0755 95.2756 71.2821 94.1202 70.8241L93.9728 71.1959ZM96.39 73.3841C96.6993 73.964 96.8804 74.539 96.9374 75.1099L97.3355 75.0701C97.2726 74.441 97.0736 73.816 96.7429 73.1959L96.39 73.3841ZM96.9374 75.1099C96.9967 75.702 97.0265 76.3652 97.0265 77.1H97.4265C97.4265 76.3548 97.3963 75.678 97.3355 75.0701L96.9374 75.1099ZM97.0265 77.1V87H97.4265V77.1H97.0265ZM97.2265 86.8H93.6565V87.2H97.2265V86.8ZM93.8565 87V83.67H93.4565V87H93.8565ZM93.4956 83.7889L94.0056 84.4789L94.3273 84.2411L93.8173 83.5511L93.4956 83.7889ZM94.0045 84.2426C93.2273 85.3149 92.3939 86.0813 91.5074 86.5535L91.6955 86.9065C92.649 86.3987 93.5256 85.5851 94.3284 84.4774L94.0045 84.2426ZM91.5081 86.5531C90.6354 87.0135 89.5151 87.25 88.1365 87.25V87.65C89.5578 87.65 90.7475 87.4065 91.6948 86.9069L91.5081 86.5531ZM89.0065 84.44C89.7786 84.44 90.4418 84.3063 90.9873 84.0282L90.8056 83.6718C90.3311 83.9137 89.7343 84.04 89.0065 84.04V84.44ZM90.9886 84.0275C91.5244 83.7493 91.9561 83.4303 92.2764 83.0673L91.9765 82.8027C91.6968 83.1197 91.3085 83.4107 90.8043 83.6725L90.9886 84.0275ZM92.2742 83.0698C92.5886 82.7249 92.8142 82.4228 92.9369 82.1663L92.576 81.9937C92.4787 82.1972 92.2843 82.4651 91.9787 82.8002L92.2742 83.0698ZM92.9369 82.1661C93.1602 81.6983 93.2851 81.1617 93.3162 80.5603L92.9167 80.5397C92.8878 81.0983 92.7727 81.5817 92.576 81.9939L92.9369 82.1661ZM93.316 80.5635C93.3562 79.9711 93.3765 79.4762 93.3765 79.08H92.9765C92.9765 79.4638 92.9567 79.9489 92.9169 80.5365L93.316 80.5635ZM93.1279 79.274L94.3279 79.574L94.425 79.186L93.225 78.886L93.1279 79.274ZM94.3438 79.1827C93.1332 79.3828 92.1517 79.553 91.3998 79.6934L91.4732 80.0866C92.2212 79.947 93.1997 79.7772 94.4091 79.5773L94.3438 79.1827ZM91.4023 79.6929C90.6503 79.8233 90.0407 79.9441 89.5749 80.0555L89.668 80.4445C90.1222 80.3359 90.7226 80.2167 91.4706 80.0871L91.4023 79.6929ZM89.5749 80.0555C89.1091 80.1669 88.6961 80.2891 88.3368 80.4225L88.4761 80.7975C88.8169 80.6709 89.2139 80.5531 89.668 80.4445L89.5749 80.0555ZM88.3322 80.4243C87.9212 80.5887 87.579 80.7717 87.3104 80.9758L87.5525 81.2942C87.784 81.1183 88.0917 80.9513 88.4807 80.7957L88.3322 80.4243ZM87.3115 80.975C87.053 81.1688 86.852 81.3896 86.7159 81.6392L87.067 81.8308C87.1709 81.6404 87.3299 81.4612 87.5515 81.295L87.3115 80.975ZM86.7126 81.6456C86.5874 81.896 86.5265 82.172 86.5265 82.47H86.9265C86.9265 82.228 86.9755 82.014 87.0703 81.8244L86.7126 81.6456ZM86.5265 82.47C86.5265 82.8738 86.6252 83.2336 86.83 83.5409L87.1629 83.3191C87.0077 83.0864 86.9265 82.8062 86.9265 82.47H86.5265ZM86.835 83.548C87.0497 83.8418 87.3462 84.0629 87.7153 84.2149L87.8676 83.8451C87.5567 83.7171 87.3232 83.5382 87.1579 83.312L86.835 83.548ZM87.7153 84.2149C88.0852 84.3672 88.5173 84.44 89.0065 84.44V84.04C88.5556 84.04 88.1777 83.9728 87.8676 83.8451L87.7153 84.2149ZM101.127 87H100.927V87.2H101.127V87ZM101.127 70.8V70.6H100.927V70.8H101.127ZM104.727 70.8H104.927V70.6H104.727V70.8ZM104.727 74.76L104.568 74.8815L104.927 75.3508V74.76H104.727ZM104.337 74.25L104.149 74.1798L104.111 74.2835L104.178 74.3715L104.337 74.25ZM106.467 71.58L106.568 71.7524L106.572 71.7503L106.467 71.58ZM107.742 71.025L107.796 71.2175L107.8 71.2163L107.742 71.025ZM109.167 70.77L109.179 70.9697L109.183 70.9693L109.167 70.77ZM110.637 70.8H110.837V70.623L110.661 70.6015L110.637 70.8ZM110.637 74.61L110.577 74.801L110.837 74.8817V74.61H110.637ZM109.062 74.475L109.075 74.6746L109.078 74.6743L109.062 74.475ZM107.457 74.88L107.54 75.0618L107.543 75.0604L107.457 74.88ZM106.242 75.765L106.389 75.9002L106.391 75.8981L106.242 75.765ZM105.492 77.055L105.681 77.1206L105.681 77.1194L105.492 77.055ZM105.237 87V87.2H105.437V87H105.237ZM101.327 87V70.8H100.927V87H101.327ZM101.127 71H104.727V70.6H101.127V71ZM104.527 70.8V74.76H104.927V70.8H104.527ZM104.886 74.6385L104.496 74.1285L104.178 74.3715L104.568 74.8815L104.886 74.6385ZM104.524 74.3202C104.727 73.7778 104.998 73.2851 105.336 72.8411L105.018 72.5989C104.655 73.0749 104.366 73.6022 104.149 74.1798L104.524 74.3202ZM105.336 72.8411C105.67 72.4023 106.08 72.0395 106.568 71.7524L106.365 71.4076C105.833 71.7205 105.384 72.1177 105.018 72.5989L105.336 72.8411ZM106.572 71.7503C106.945 71.5204 107.353 71.3427 107.796 71.2175L107.687 70.8325C107.21 70.9673 106.768 71.1596 106.362 71.4097L106.572 71.7503ZM107.8 71.2163C108.245 71.081 108.704 70.9987 109.179 70.9696L109.154 70.5704C108.649 70.6013 108.159 70.689 107.683 70.8337L107.8 71.2163ZM109.183 70.9693C109.659 70.9304 110.136 70.9402 110.612 70.9985L110.661 70.6015C110.158 70.5398 109.654 70.5296 109.15 70.5707L109.183 70.9693ZM110.437 70.8V74.61H110.837V70.8H110.437ZM110.696 74.419C110.216 74.2696 109.664 74.2241 109.045 74.2757L109.078 74.6743C109.659 74.6259 110.158 74.6704 110.577 74.801L110.696 74.419ZM109.048 74.2755C108.436 74.317 107.876 74.4575 107.37 74.6996L107.543 75.0604C107.998 74.8425 108.508 74.713 109.075 74.6745L109.048 74.2755ZM107.373 74.6982C106.87 74.9289 106.442 75.24 106.092 75.6319L106.391 75.8981C106.701 75.55 107.083 75.2711 107.54 75.0618L107.373 74.6982ZM106.094 75.6299C105.744 76.0119 105.481 76.4665 105.302 76.9906L105.681 77.1194C105.843 76.6435 106.079 76.2381 106.389 75.9001L106.094 75.6299ZM105.303 76.9894C105.124 77.5042 105.037 78.0819 105.037 78.72H105.437C105.437 78.1181 105.519 77.5858 105.681 77.1206L105.303 76.9894ZM105.037 78.72V87H105.437V78.72H105.037ZM105.237 86.8H101.127V87.2H105.237V86.8ZM113.79 68.55H113.59V68.75H113.79V68.55ZM113.79 64.95V64.75H113.59V64.95H113.79ZM117.87 64.95H118.07V64.75H117.87V64.95ZM117.87 68.55V68.75H118.07V68.55H117.87ZM113.79 87H113.59V87.2H113.79V87ZM113.79 70.8V70.6H113.59V70.8H113.79ZM117.87 70.8H118.07V70.6H117.87V70.8ZM117.87 87V87.2H118.07V87H117.87ZM113.99 68.55V64.95H113.59V68.55H113.99ZM113.79 65.15H117.87V64.75H113.79V65.15ZM117.67 64.95V68.55H118.07V64.95H117.67ZM117.87 68.35H113.79V68.75H117.87V68.35ZM113.99 87V70.8H113.59V87H113.99ZM113.79 71H117.87V70.6H113.79V71ZM117.67 70.8V87H118.07V70.8H117.67ZM117.87 86.8H113.79V87.2H117.87V86.8Z" fill="white"/>
<circle cx="131" cy="84" r="3" fill="white"/>
</svg>
