<svg width="24" height="24" viewBox="0 0 24 24" fill="none" xmlns="http://www.w3.org/2000/svg">
<path fill-rule="evenodd" clip-rule="evenodd" d="M5 1C3.93913 1 2.92172 1.42143 2.17157 2.17157C1.42143 2.92172 1 3.93913 1 5V19C1 20.0609 1.42143 21.0783 2.17157 21.8284C2.92172 22.5786 3.93913 23 5 23H19C20.0609 23 21.0783 22.5786 21.8284 21.8284C22.5786 21.0783 23 20.0609 23 19V5C23 3.93913 22.5786 2.92172 21.8284 2.17157C21.0783 1.42143 20.0609 1 19 1H5ZM14.961 6.275C15.0015 6.14751 15.0161 6.01318 15.0038 5.87997C14.9915 5.74675 14.9526 5.61736 14.8894 5.49945C14.8262 5.38154 14.74 5.27751 14.6358 5.19353C14.5317 5.10954 14.4118 5.0473 14.2832 5.01049C14.1545 4.97369 14.0198 4.96306 13.887 4.97925C13.7542 4.99544 13.626 5.03811 13.51 5.10473C13.394 5.17136 13.2926 5.26058 13.2116 5.36712C13.1307 5.47367 13.072 5.59536 13.039 5.725L9.039 17.725C8.99845 17.8525 8.9839 17.9868 8.99619 18.12C9.00849 18.2532 9.0474 18.3826 9.1106 18.5005C9.17381 18.6185 9.26003 18.7225 9.36416 18.8065C9.4683 18.8905 9.58822 18.9527 9.71684 18.9895C9.84546 19.0263 9.98016 19.0369 10.113 19.0207C10.2458 19.0046 10.374 18.9619 10.49 18.8953C10.606 18.8286 10.7074 18.7394 10.7884 18.6329C10.8693 18.5263 10.928 18.4046 10.961 18.275L14.961 6.275ZM7.707 9.707C7.88916 9.5184 7.98995 9.26579 7.98767 9.0036C7.9854 8.7414 7.88023 8.49059 7.69482 8.30518C7.50941 8.11977 7.2586 8.0146 6.9964 8.01232C6.7342 8.01005 6.4816 8.11084 6.293 8.293L3.293 11.293C3.10553 11.4805 3.00021 11.7348 3.00021 12C3.00021 12.2652 3.10553 12.5195 3.293 12.707L6.293 15.707C6.4816 15.8892 6.7342 15.9899 6.9964 15.9877C7.2586 15.9854 7.50941 15.8802 7.69482 15.6948C7.88023 15.5094 7.9854 15.2586 7.98767 14.9964C7.98995 14.7342 7.88916 14.4816 7.707 14.293L5.414 12L7.707 9.707ZM17.707 8.293C17.6148 8.19749 17.5044 8.12131 17.3824 8.0689C17.2604 8.01649 17.1292 7.9889 16.9964 7.98775C16.8636 7.98659 16.7319 8.0119 16.609 8.06218C16.4862 8.11246 16.3745 8.18671 16.2806 8.2806C16.1867 8.3745 16.1125 8.48615 16.0622 8.60904C16.0119 8.73194 15.9866 8.86362 15.9877 8.9964C15.9889 9.12918 16.0165 9.2604 16.0689 9.3824C16.1213 9.50441 16.1975 9.61475 16.293 9.707L18.586 12L16.293 14.293C16.1108 14.4816 16.01 14.7342 16.0123 14.9964C16.0146 15.2586 16.1198 15.5094 16.3052 15.6948C16.4906 15.8802 16.7414 15.9854 17.0036 15.9877C17.2658 15.9899 17.5184 15.8892 17.707 15.707L20.707 12.707C20.8945 12.5195 20.9998 12.2652 20.9998 12C20.9998 11.7348 20.8945 11.4805 20.707 11.293L17.707 8.293Z" fill="#697896"/>
</svg>
