<svg width="24" height="24" viewBox="0 0 24 24" fill="none" xmlns="http://www.w3.org/2000/svg">
<path d="M14.4999 10.33H21.1699C21.3901 10.33 21.6012 10.2426 21.7568 10.0869C21.9125 9.93124 21.9999 9.72013 21.9999 9.5C21.9999 7.51088 21.2097 5.60322 19.8032 4.1967C18.3967 2.79018 16.489 2 14.4999 2C14.2798 2 14.0687 2.08745 13.913 2.2431C13.7574 2.39876 13.6699 2.60987 13.6699 2.83V9.5C13.6699 9.72013 13.7574 9.93124 13.913 10.0869C14.0687 10.2426 14.2798 10.33 14.4999 10.33Z" fill="#697896"/>
<path d="M21.08 12H12.93C12.8105 12 12.6922 11.9765 12.5818 11.9308C12.4714 11.885 12.371 11.818 12.2865 11.7335C12.202 11.649 12.135 11.5487 12.0893 11.4383C12.0435 11.3279 12.02 11.2095 12.02 11.09V2.92002C12.0208 2.79031 11.9941 2.6619 11.9417 2.54322C11.8894 2.42455 11.8125 2.31828 11.7162 2.2314C11.6199 2.14453 11.5063 2.079 11.3829 2.03912C11.2594 1.99924 11.129 1.98592 11 2.00002C9.12276 2.19935 7.34027 2.92599 5.85868 4.09591C4.37709 5.26582 3.25693 6.83122 2.62771 8.61108C1.9985 10.3909 1.88595 12.3126 2.30308 14.1537C2.7202 15.9948 3.64996 17.6803 4.98484 19.0152C6.31972 20.3501 8.00519 21.2798 9.84633 21.697C11.6875 22.1141 13.6091 22.0015 15.3889 21.3723C17.1688 20.7431 18.7342 19.6229 19.9041 18.1413C21.074 16.6598 21.8007 14.8773 22 13C22.0111 12.8727 21.9956 12.7444 21.9543 12.6233C21.9131 12.5023 21.8471 12.3912 21.7605 12.2971C21.674 12.203 21.5688 12.128 21.4516 12.0769C21.3344 12.0257 21.2079 11.9995 21.08 12Z" fill="#697896"/>
</svg>
