<svg width="24" height="24" viewBox="0 0 24 24" fill="none" xmlns="http://www.w3.org/2000/svg">
<path d="M7.45553 19.984C6.21402 19.8957 5.03438 19.4462 4.08503 18.6998C3.13569 17.9534 2.46519 16.9482 2.16927 15.8277C1.87335 14.7072 1.96714 13.5288 2.43725 12.4606C2.90737 11.3925 3.72976 10.4893 4.78701 9.87991C5.01197 8.25491 5.86841 6.76154 7.19605 5.67927C8.52369 4.597 10.2315 4 12 4C13.7685 4 15.4763 4.597 16.8039 5.67927C18.1316 6.76154 18.988 8.25491 19.213 9.87991C20.2702 10.4893 21.0926 11.3925 21.5627 12.4606C22.0329 13.5288 22.1267 14.7072 21.8307 15.8277C21.5348 16.9482 20.8643 17.9534 19.915 18.6998C18.9656 19.4462 17.786 19.8957 16.5445 19.984V20H7.45553V19.984ZM12.9089 12.4219V9.0539H11.0911V12.4219H8.36442L12 16.632L15.6356 12.4219H12.9089Z" fill="#697896"/>
</svg>
