<svg width="24" height="24" viewBox="0 0 24 24" fill="none" xmlns="http://www.w3.org/2000/svg">
<path d="M21.9 10.9999C21.9 10.8899 21.84 10.7799 21.81 10.6699C21.7637 10.4759 21.7036 10.2854 21.63 10.0999C21.58 9.97994 21.51 9.85993 21.45 9.72993C21.39 9.59993 21.3 9.42993 21.21 9.28993C21.12 9.14993 21 9.07993 21 8.99993C21 8.91993 20.8 8.74993 20.69 8.62993C20.58 8.50993 20.48 8.42993 20.37 8.32993L20 7.99993L19.64 7.75993C19.4987 7.67345 19.3517 7.59661 19.2 7.52993L18.81 7.34993C18.6467 7.28944 18.4797 7.23934 18.31 7.19993C18.1756 7.1604 18.0386 7.13032 17.9 7.10993H17.72C17.3348 5.90919 16.5811 4.86034 15.5659 4.11232C14.5507 3.3643 13.3257 2.95515 12.0647 2.94297C10.8038 2.93079 9.57103 3.31621 8.54158 4.04448C7.51213 4.77275 6.73831 5.80686 6.33 6.99993H6.15C6.0114 7.02032 5.8744 7.0504 5.74 7.08993C5.57034 7.12934 5.40334 7.17944 5.24 7.23993L4.85 7.41993C4.69832 7.48661 4.55132 7.56345 4.41 7.64993L4.05 7.99993L3.68 8.30993C3.57 8.40993 3.46 8.49993 3.36 8.60993C3.26 8.71993 3.15 8.85993 3.05 8.97993C2.95 9.09993 2.87 9.20993 2.79 9.33993C2.71 9.46993 2.63 9.62993 2.55 9.77993C2.47 9.92993 2.42 10.0299 2.37 10.1499C2.29644 10.3354 2.23629 10.5259 2.19 10.7199C2.19 10.8299 2.12 10.9399 2.1 11.0499C2.03776 11.3629 2.00428 11.6809 2 11.9999C2.00469 12.3052 2.03479 12.6096 2.09 12.9099C2.09 13.0099 2.14 13.0999 2.16 13.1999C2.20943 13.3964 2.26952 13.59 2.34 13.7799L2.46 14.0699C2.54803 14.2628 2.64823 14.4498 2.76 14.6299L2.9 14.8499C2.91439 14.878 2.93111 14.9047 2.95 14.9299L3 14.9999C3.46574 15.6209 4.06965 16.1249 4.76393 16.4721C5.45821 16.8192 6.22377 16.9999 7 16.9999C7.00223 16.4704 7.21441 15.9633 7.59 15.5899C7.96335 15.2143 8.47042 15.0022 9 14.9999C9.35177 14.9966 9.6977 15.09 10 15.2699V11.9999C10 11.4695 10.2107 10.9608 10.5858 10.5857C10.9609 10.2106 11.4696 9.99993 12 9.99993C12.5304 9.99993 13.0391 10.2106 13.4142 10.5857C13.7893 10.9608 14 11.4695 14 11.9999V15.3699C14.3038 15.1937 14.6487 15.1006 15 15.0999C15.5417 15.105 16.0595 15.3243 16.44 15.7099C16.7767 16.058 16.9757 16.5163 17 16.9999C17.7762 16.9999 18.5418 16.8192 19.2361 16.4721C19.9303 16.1249 20.5343 15.6209 21 14.9999L21.05 14.9499C21.0689 14.9247 21.0856 14.898 21.1 14.8699L21.24 14.6499C21.3518 14.4698 21.452 14.2828 21.54 14.0899L21.66 13.7999C21.7305 13.61 21.7906 13.4164 21.84 13.2199C21.84 13.1199 21.89 13.0299 21.91 12.9299C21.9663 12.623 21.9964 12.3119 22 11.9999C21.9988 11.6642 21.9654 11.3293 21.9 10.9999Z" fill="#697896"/>
<path d="M14.3099 16.38L12.9999 17.64V12C12.9999 11.7348 12.8946 11.4804 12.707 11.2929C12.5195 11.1054 12.2652 11 11.9999 11C11.7347 11 11.4804 11.1054 11.2928 11.2929C11.1053 11.4804 10.9999 11.7348 10.9999 12V17.59L9.70994 16.29C9.6167 16.1968 9.50601 16.1228 9.38419 16.0723C9.26237 16.0219 9.1318 15.9959 8.99994 15.9959C8.86808 15.9959 8.73751 16.0219 8.61569 16.0723C8.49387 16.1228 8.38318 16.1968 8.28994 16.29C8.1967 16.3832 8.12274 16.4939 8.07228 16.6158C8.02182 16.7376 7.99585 16.8681 7.99585 17C7.99585 17.1319 8.02182 17.2624 8.07228 17.3842C8.12274 17.5061 8.1967 17.6168 8.28994 17.71L11.2899 20.71C11.3834 20.8027 11.4942 20.876 11.616 20.9258C11.7379 20.9755 11.8683 21.0008 11.9999 21C12.2574 20.999 12.5046 20.8987 12.6899 20.72L15.6899 17.82C15.7961 17.7324 15.883 17.6239 15.9452 17.5013C16.0075 17.3786 16.0438 17.2444 16.0518 17.107C16.0598 16.9697 16.0394 16.8322 15.9919 16.7031C15.9443 16.574 15.8707 16.4561 15.7755 16.3568C15.6803 16.2575 15.5656 16.1788 15.4387 16.1259C15.3117 16.0729 15.1752 16.0466 15.0376 16.0488C14.9001 16.051 14.7645 16.0815 14.6393 16.1385C14.514 16.1955 14.4019 16.2777 14.3099 16.38Z" fill="#697896"/>
<path d="M21.9 10.9999C21.9 10.8899 21.84 10.7799 21.81 10.6699C21.7637 10.4759 21.7036 10.2854 21.63 10.0999C21.58 9.97994 21.51 9.85993 21.45 9.72993C21.39 9.59993 21.3 9.42993 21.21 9.28993C21.12 9.14993 21 9.07993 21 8.99993C21 8.91993 20.8 8.74993 20.69 8.62993C20.58 8.50993 20.48 8.42993 20.37 8.32993L20 7.99993L19.64 7.75993C19.4987 7.67345 19.3517 7.59661 19.2 7.52993L18.81 7.34993C18.6467 7.28944 18.4797 7.23934 18.31 7.19993C18.1756 7.1604 18.0386 7.13032 17.9 7.10993H17.72C17.3348 5.90919 16.5811 4.86034 15.5659 4.11232C14.5507 3.3643 13.3257 2.95515 12.0647 2.94297C10.8038 2.93079 9.57103 3.31621 8.54158 4.04448C7.51213 4.77275 6.73831 5.80686 6.33 6.99993H6.15C6.0114 7.02032 5.8744 7.0504 5.74 7.08993C5.57034 7.12934 5.40334 7.17944 5.24 7.23993L4.85 7.41993C4.69832 7.48661 4.55132 7.56345 4.41 7.64993L4.05 7.99993L3.68 8.30993C3.57 8.40993 3.46 8.49993 3.36 8.60993C3.26 8.71993 3.15 8.85993 3.05 8.97993C2.95 9.09993 2.87 9.20993 2.79 9.33993C2.71 9.46993 2.63 9.62993 2.55 9.77993C2.47 9.92993 2.42 10.0299 2.37 10.1499C2.29644 10.3354 2.23629 10.5259 2.19 10.7199C2.19 10.8299 2.12 10.9399 2.1 11.0499C2.03776 11.3629 2.00428 11.6809 2 11.9999C2.00469 12.3052 2.03479 12.6096 2.09 12.9099C2.09 13.0099 2.14 13.0999 2.16 13.1999C2.20943 13.3964 2.26952 13.59 2.34 13.7799L2.46 14.0699C2.54803 14.2628 2.64823 14.4498 2.76 14.6299L2.9 14.8499C2.91439 14.878 2.93111 14.9047 2.95 14.9299L3 14.9999C3.46574 15.6209 4.06965 16.1249 4.76393 16.4721C5.45821 16.8192 6.22377 16.9999 7 16.9999C7.00223 16.4704 7.21441 15.9633 7.59 15.5899C7.96335 15.2143 8.47042 15.0022 9 14.9999C9.35177 14.9966 9.6977 15.09 10 15.2699V11.9999C10 11.4695 10.2107 10.9608 10.5858 10.5857C10.9609 10.2106 11.4696 9.99993 12 9.99993C12.5304 9.99993 13.0391 10.2106 13.4142 10.5857C13.7893 10.9608 14 11.4695 14 11.9999V15.3699C14.3038 15.1937 14.6487 15.1006 15 15.0999C15.5417 15.105 16.0595 15.3243 16.44 15.7099C16.7767 16.058 16.9757 16.5163 17 16.9999C17.7762 16.9999 18.5418 16.8192 19.2361 16.4721C19.9303 16.1249 20.5343 15.6209 21 14.9999L21.05 14.9499C21.0689 14.9247 21.0856 14.898 21.1 14.8699L21.24 14.6499C21.3518 14.4698 21.452 14.2828 21.54 14.0899L21.66 13.7999C21.7305 13.61 21.7906 13.4164 21.84 13.2199C21.84 13.1199 21.89 13.0299 21.91 12.9299C21.9663 12.623 21.9964 12.3119 22 11.9999C21.9988 11.6642 21.9654 11.3293 21.9 10.9999Z" fill="#697896"/>
<path d="M14.3099 16.38L12.9999 17.64V12C12.9999 11.7348 12.8946 11.4804 12.707 11.2929C12.5195 11.1054 12.2652 11 11.9999 11C11.7347 11 11.4804 11.1054 11.2928 11.2929C11.1053 11.4804 10.9999 11.7348 10.9999 12V17.59L9.70994 16.29C9.6167 16.1968 9.50601 16.1228 9.38419 16.0723C9.26237 16.0219 9.1318 15.9959 8.99994 15.9959C8.86808 15.9959 8.73751 16.0219 8.61569 16.0723C8.49387 16.1228 8.38318 16.1968 8.28994 16.29C8.1967 16.3832 8.12274 16.4939 8.07228 16.6158C8.02182 16.7376 7.99585 16.8681 7.99585 17C7.99585 17.1319 8.02182 17.2624 8.07228 17.3842C8.12274 17.5061 8.1967 17.6168 8.28994 17.71L11.2899 20.71C11.3834 20.8027 11.4942 20.876 11.616 20.9258C11.7379 20.9755 11.8683 21.0008 11.9999 21C12.2574 20.999 12.5046 20.8987 12.6899 20.72L15.6899 17.82C15.7961 17.7324 15.883 17.6239 15.9452 17.5013C16.0075 17.3786 16.0438 17.2444 16.0518 17.107C16.0598 16.9697 16.0394 16.8322 15.9919 16.7031C15.9443 16.574 15.8707 16.4561 15.7755 16.3568C15.6803 16.2575 15.5656 16.1788 15.4387 16.1259C15.3117 16.0729 15.1752 16.0466 15.0376 16.0488C14.9001 16.051 14.7645 16.0815 14.6393 16.1385C14.514 16.1955 14.4019 16.2777 14.3099 16.38Z" fill="#697896"/>
</svg>
