<svg width="24" height="24" viewBox="0 0 24 24" fill="none" xmlns="http://www.w3.org/2000/svg">
<path d="M23.25 18H0.75C0.546875 18 0.371094 17.9258 0.222656 17.7773C0.0742188 17.6289 0 17.4531 0 17.25C0 14.3125 0.910156 11.8086 2.73047 9.73828C4.55078 7.66797 6.89062 6.42188 9.75 6C9.95312 6 10.1289 5.92578 10.2773 5.77734C10.4258 5.62891 10.5 5.45312 10.5 5.25C10.5 5.04688 10.4258 4.87109 10.2773 4.72266C10.1289 4.57422 9.95312 4.5 9.75 4.5C9.54688 4.5 9.37109 4.42578 9.22266 4.27734C9.07422 4.12891 9 3.95312 9 3.75C9 3.54688 9.07422 3.37109 9.22266 3.22266C9.37109 3.07422 9.54688 3 9.75 3H14.25C14.4531 3 14.6289 3.07422 14.7773 3.22266C14.9258 3.37109 15 3.54688 15 3.75C15 3.95312 14.9258 4.12891 14.7773 4.27734C14.6289 4.42578 14.4531 4.5 14.25 4.5C14.0469 4.5 13.8711 4.57422 13.7227 4.72266C13.5742 4.87109 13.5 5.04688 13.5 5.25C13.5 5.45312 13.5742 5.62891 13.7227 5.77734C13.8711 5.92578 14.0469 6 14.25 6C17.1094 6.42188 19.4492 7.66797 21.2695 9.73828C23.0898 11.8086 24 14.3125 24 17.25C24 17.4531 23.9258 17.6289 23.7773 17.7773C23.6289 17.9258 23.4531 18 23.25 18ZM0.75 19.5H23.25C23.4531 19.5 23.6289 19.5742 23.7773 19.7227C23.9258 19.8711 24 20.0469 24 20.25C24 20.4531 23.9258 20.6289 23.7773 20.7773C23.6289 20.9258 23.4531 21 23.25 21H0.75C0.546875 21 0.371094 20.9258 0.222656 20.7773C0.0742188 20.6289 0 20.4531 0 20.25C0 20.0469 0.0742188 19.8711 0.222656 19.7227C0.371094 19.5742 0.546875 19.5 0.75 19.5Z" fill="#697896"/>
</svg>
