<svg width="24" height="24" viewBox="0 0 24 24" fill="none" xmlns="http://www.w3.org/2000/svg">
<path d="M17.25 18.998C15.3906 18.998 13.8008 18.3165 12.4805 16.9536C11.1602 15.5907 10.5 13.9496 10.5 12.0302C10.5 10.9657 10.1328 10.0544 9.39844 9.29637C8.66406 8.53831 7.78125 8.15927 6.75 8.15927C5.71875 8.15927 4.83594 8.53831 4.10156 9.29637C3.36719 10.0544 3 10.9657 3 12.0302C3 13.0948 3.36719 14.006 4.10156 14.7641C4.83594 15.5222 5.71875 15.9012 6.75 15.9012C7.79688 15.9012 8.6875 15.5141 9.42188 14.7399C9.76562 15.756 10.2656 16.6754 10.9219 17.498C9.70312 18.498 8.3125 18.998 6.75 18.998C4.89062 18.998 3.30078 18.3165 1.98047 16.9536C0.660156 15.5907 0 13.9496 0 12.0302C0 10.1109 0.660156 8.46976 1.98047 7.10685C3.30078 5.74395 4.89062 5.0625 6.75 5.0625C8.60938 5.0625 10.1992 5.74395 11.5195 7.10685C12.8398 8.46976 13.5 10.1109 13.5 12.0302C13.5 13.0948 13.8672 14.006 14.6016 14.7641C15.3359 15.5222 16.2188 15.9012 17.25 15.9012C18.2812 15.9012 19.1641 15.5222 19.8984 14.7641C20.6328 14.006 21 13.0948 21 12.0302C21 10.9657 20.6328 10.0544 19.8984 9.29637C19.1641 8.53831 18.2812 8.15927 17.25 8.15927C16.2031 8.15927 15.3125 8.54637 14.5781 9.32056C14.2344 8.30444 13.7344 7.38508 13.0781 6.5625C14.2969 5.5625 15.6875 5.0625 17.25 5.0625C19.1094 5.0625 20.6992 5.74395 22.0195 7.10685C23.3398 8.46976 24 10.1109 24 12.0302C24 13.9496 23.3398 15.5907 22.0195 16.9536C20.6992 18.3165 19.1094 18.998 17.25 18.998Z" fill="#697896"/>
</svg>
