<svg width="24" height="24" viewBox="0 0 24 24" fill="none" xmlns="http://www.w3.org/2000/svg">
<path d="M6.0001 4C5.36358 4 4.75313 4.25286 4.30304 4.70294C3.85295 5.15303 3.6001 5.76348 3.6001 6.4V18.4C3.6001 19.0365 3.85295 19.647 4.30304 20.0971C4.75313 20.5471 5.36358 20.8 6.0001 20.8H18.0001C18.6366 20.8 19.2471 20.5471 19.6972 20.0971C20.1472 19.647 20.4001 19.0365 20.4001 18.4V6.4C20.4001 5.76348 20.1472 5.15303 19.6972 4.70294C19.2471 4.25286 18.6366 4 18.0001 4H6.0001ZM9.0001 9.1C9.0001 9.3387 8.90528 9.56761 8.73649 9.7364C8.56771 9.90518 8.33879 10 8.1001 10C7.8614 10 7.63248 9.90518 7.4637 9.7364C7.29492 9.56761 7.2001 9.3387 7.2001 9.1C7.2001 8.86131 7.29492 8.63239 7.4637 8.4636C7.63248 8.29482 7.8614 8.2 8.1001 8.2C8.33879 8.2 8.56771 8.29482 8.73649 8.4636C8.90528 8.63239 9.0001 8.86131 9.0001 9.1ZM8.1001 13.6C7.8614 13.6 7.63248 13.5052 7.4637 13.3364C7.29492 13.1676 7.2001 12.9387 7.2001 12.7C7.2001 12.4613 7.29492 12.2324 7.4637 12.0636C7.63248 11.8948 7.8614 11.8 8.1001 11.8C8.33879 11.8 8.56771 11.8948 8.73649 12.0636C8.90528 12.2324 9.0001 12.4613 9.0001 12.7C9.0001 12.9387 8.90528 13.1676 8.73649 13.3364C8.56771 13.5052 8.33879 13.6 8.1001 13.6ZM9.0001 16.3C9.0001 16.5387 8.90528 16.7676 8.73649 16.9364C8.56771 17.1052 8.33879 17.2 8.1001 17.2C7.8614 17.2 7.63248 17.1052 7.4637 16.9364C7.29492 16.7676 7.2001 16.5387 7.2001 16.3C7.2001 16.0613 7.29492 15.8324 7.4637 15.6636C7.63248 15.4948 7.8614 15.4 8.1001 15.4C8.33879 15.4 8.56771 15.4948 8.73649 15.6636C8.90528 15.8324 9.0001 16.0613 9.0001 16.3ZM11.4001 8.8H16.2001C16.3592 8.8 16.5118 8.86321 16.6244 8.97574C16.7369 9.08826 16.8001 9.24087 16.8001 9.4C16.8001 9.55913 16.7369 9.71174 16.6244 9.82426C16.5118 9.93679 16.3592 10 16.2001 10H11.4001C11.241 10 11.0884 9.93679 10.9758 9.82426C10.8633 9.71174 10.8001 9.55913 10.8001 9.4C10.8001 9.24087 10.8633 9.08826 10.9758 8.97574C11.0884 8.86321 11.241 8.8 11.4001 8.8ZM10.8001 13C10.8001 12.8409 10.8633 12.6883 10.9758 12.5757C11.0884 12.4632 11.241 12.4 11.4001 12.4H16.2001C16.3592 12.4 16.5118 12.4632 16.6244 12.5757C16.7369 12.6883 16.8001 12.8409 16.8001 13C16.8001 13.1591 16.7369 13.3117 16.6244 13.4243C16.5118 13.5368 16.3592 13.6 16.2001 13.6H11.4001C11.241 13.6 11.0884 13.5368 10.9758 13.4243C10.8633 13.3117 10.8001 13.1591 10.8001 13ZM11.4001 16H16.2001C16.3592 16 16.5118 16.0632 16.6244 16.1757C16.7369 16.2883 16.8001 16.4409 16.8001 16.6C16.8001 16.7591 16.7369 16.9117 16.6244 17.0243C16.5118 17.1368 16.3592 17.2 16.2001 17.2H11.4001C11.241 17.2 11.0884 17.1368 10.9758 17.0243C10.8633 16.9117 10.8001 16.7591 10.8001 16.6C10.8001 16.4409 10.8633 16.2883 10.9758 16.1757C11.0884 16.0632 11.241 16 11.4001 16Z" fill="#697896"/>
</svg>
