<svg width="24" height="24" viewBox="0 0 24 24" fill="none" xmlns="http://www.w3.org/2000/svg">
<path d="M5.92894 4C5.7347 3.99994 5.5441 4.04452 5.37752 4.12896C5.21093 4.2134 5.07464 4.33453 4.98322 4.47939L2.12605 9.00761C2.02842 9.16233 1.98604 9.33769 2.00404 9.51239C2.02205 9.68709 2.09967 9.85361 2.22748 9.99174L11.1561 19.6519C11.2563 19.7604 11.3845 19.848 11.5307 19.9083C11.677 19.9687 11.8377 20 12.0004 20C12.1632 20 12.3238 19.9687 12.4701 19.9083C12.6164 19.848 12.7445 19.7604 12.8447 19.6519L21.7734 9.99174C21.901 9.85349 21.9783 9.68691 21.9961 9.51221C22.0138 9.33752 21.9712 9.16222 21.8734 9.00761L19.0162 4.47939C18.9249 4.33471 18.7888 4.2137 18.6225 4.12927C18.4562 4.04484 18.2659 4.00016 18.0719 4H5.92894ZM4.6675 8.8301L6.57181 5.81129H8.39611L7.50324 8.8301H4.6675ZM5.54751 10.6414H7.75324L9.22326 14.6178L5.54751 10.6414ZM9.99755 10.6414H14.0033L12.0004 16.0583L9.99755 10.6414ZM16.2476 10.6414H18.4533L14.7776 14.6178L16.249 10.6414H16.2476ZM19.3333 8.8301H16.4976L15.6047 5.81129H17.429L19.3333 8.8301ZM14.289 8.8301H9.71183L10.6047 5.81129H13.3961L14.289 8.8301Z" fill="#697896"/>
</svg>
