<svg width="24" height="24" viewBox="0 0 24 24" fill="none" xmlns="http://www.w3.org/2000/svg">
<path d="M20.6493 10.5133L13.4397 21.6553C13.3958 21.7232 13.331 21.7751 13.2551 21.8032C13.1792 21.8313 13.0963 21.8341 13.0187 21.8112C12.9411 21.7883 12.873 21.7409 12.8245 21.6761C12.7761 21.6113 12.7499 21.5325 12.7499 21.4516V14.155C13.4569 13.9725 14.0731 13.5384 14.4829 12.934C14.8927 12.3297 15.068 11.5966 14.976 10.8723C14.884 10.1479 14.531 9.48198 13.9831 8.99929C13.4352 8.5166 12.7301 8.25029 11.9999 8.25029C11.2697 8.25029 10.5646 8.5166 10.0167 8.99929C9.46886 9.48198 9.11583 10.1479 9.02382 10.8723C8.93182 11.5966 9.10715 12.3297 9.51696 12.934C9.92677 13.5384 10.5429 13.9725 11.2499 14.155V21.4516C11.2499 21.5325 11.2237 21.6113 11.1753 21.6761C11.1268 21.7409 11.0587 21.7883 10.9811 21.8112C10.9035 21.8341 10.8206 21.8313 10.7447 21.8032C10.6688 21.7751 10.6041 21.7232 10.5601 21.6553L3.35054 10.5133C3.26024 10.3737 3.21886 10.2081 3.23291 10.0425C3.24696 9.87686 3.31564 9.72058 3.42816 9.59822C5.08242 7.8026 6.0005 5.45029 5.99991 3.00881C5.99925 2.90972 6.01813 2.81147 6.05547 2.71968C6.09282 2.62789 6.1479 2.54436 6.21756 2.47388C6.28722 2.4034 6.3701 2.34735 6.46145 2.30893C6.55279 2.27052 6.65082 2.25049 6.74991 2.25H17.2499C17.349 2.25049 17.447 2.27052 17.5384 2.30893C17.6297 2.34735 17.7126 2.4034 17.7823 2.47388C17.8519 2.54436 17.907 2.62789 17.9444 2.71968C17.9817 2.81147 18.0006 2.90972 17.9999 3.00881C17.9993 5.45026 18.9174 7.80254 20.5717 9.59812C20.6842 9.72049 20.7529 9.87679 20.767 10.0424C20.781 10.2081 20.7396 10.3737 20.6493 10.5133ZM13.4999 11.25C13.4999 10.9533 13.4119 10.6633 13.2471 10.4166C13.0823 10.17 12.848 9.97771 12.5739 9.86418C12.2999 9.75065 11.9983 9.72094 11.7073 9.77882C11.4163 9.8367 11.149 9.97956 10.9393 10.1893C10.7295 10.3991 10.5866 10.6664 10.5287 10.9574C10.4709 11.2483 10.5006 11.5499 10.6141 11.824C10.7276 12.0981 10.9199 12.3324 11.1666 12.4972C11.4132 12.662 11.7032 12.75 11.9999 12.75C12.3976 12.7496 12.7789 12.5914 13.0601 12.3102C13.3413 12.029 13.4995 11.6477 13.4999 11.25Z" fill="#697896"/>
</svg>
