<svg width="24" height="24" viewBox="0 0 24 24" fill="none" xmlns="http://www.w3.org/2000/svg">
<path d="M21.7329 5.83925C21.6438 5.75289 21.5346 5.68307 21.4123 5.63415C21.2899 5.58523 21.1569 5.55828 21.0217 5.55496C18.9211 5.50836 16.263 3.60225 14.5056 2.85425C13.42 2.39365 12.7033 2.08995 12.1651 2.00994C12.0558 1.99643 11.9448 1.99669 11.8356 2.01072C11.2974 2.09072 10.5807 2.39443 9.49607 2.85503C7.73867 3.60225 5.08059 5.50836 2.97994 5.55496C2.84463 5.55845 2.7116 5.58548 2.58911 5.63438C2.46661 5.68328 2.35726 5.75301 2.26783 5.83925C2.08245 6.01722 1.9868 6.24984 2.00147 6.48705C2.45272 14.2723 5.74328 19.0904 11.5171 21.8905C11.6672 21.9627 11.8338 22 11.9995 22C12.1651 22 12.3317 21.9627 12.4827 21.8905C18.2566 19.0904 21.5462 14.2723 21.9984 6.48705C22.0139 6.24987 21.9185 6.01709 21.7329 5.83925ZM17.1417 8.90114L12.2695 15.0024C12.0947 15.2214 11.8201 15.3667 11.5482 15.3667C11.2754 15.3667 10.9725 15.2401 10.7812 15.0777L7.34691 12.1626C7.23479 12.0671 7.17183 11.9378 7.17183 11.803C7.17183 11.6682 7.23479 11.5389 7.34691 11.4434L8.19541 10.7218C8.30818 10.627 8.46048 10.5739 8.6192 10.5739C8.77791 10.5739 8.93021 10.627 9.04299 10.7218L11.2764 12.617L15.1564 7.75701C15.2462 7.64579 15.3841 7.56924 15.5402 7.54406C15.6963 7.51889 15.8577 7.54713 15.9893 7.62263L16.9824 8.19431C17.1136 8.27037 17.204 8.38741 17.2339 8.51985C17.2637 8.65229 17.2306 8.78937 17.1417 8.90114Z" fill="#697896"/>
</svg>
