<svg width="24" height="24" viewBox="0 0 24 24" fill="none" xmlns="http://www.w3.org/2000/svg">
<path d="M12.012 2.25C12.746 2.258 13.477 2.343 14.194 2.503C14.3465 2.53705 14.4846 2.6179 14.5889 2.73426C14.6933 2.85062 14.7587 2.99667 14.776 3.152L14.946 4.679C14.97 4.89428 15.0442 5.10093 15.1626 5.28231C15.281 5.46368 15.4404 5.61473 15.6278 5.72329C15.8153 5.83185 16.0256 5.89489 16.2419 5.90735C16.4581 5.9198 16.6743 5.88132 16.873 5.795L18.274 5.18C18.4162 5.11735 18.5744 5.10044 18.7267 5.13161C18.879 5.16278 19.0178 5.24049 19.124 5.354C20.1359 6.43509 20.8895 7.73161 21.328 9.146C21.374 9.29464 21.3726 9.45389 21.324 9.60171C21.2755 9.74953 21.1821 9.87858 21.057 9.971L19.815 10.887C19.6403 11.0153 19.4983 11.1829 19.4004 11.3763C19.3025 11.5696 19.2515 11.7833 19.2515 12C19.2515 12.2167 19.3025 12.4304 19.4004 12.6237C19.4983 12.8171 19.6403 12.9847 19.815 13.113L21.058 14.028C21.1835 14.1204 21.2772 14.2495 21.3259 14.3976C21.3747 14.5456 21.3761 14.7051 21.33 14.854C20.8913 16.2683 20.1378 17.5648 19.126 18.646C19.0201 18.7593 18.8816 18.8369 18.7298 18.8682C18.5779 18.8996 18.4201 18.8831 18.278 18.821L16.871 18.204C16.6726 18.117 16.4565 18.0779 16.2402 18.09C16.0238 18.102 15.8134 18.1648 15.6259 18.2733C15.4383 18.3817 15.279 18.5328 15.1607 18.7143C15.0424 18.8958 14.9685 19.1026 14.945 19.318L14.776 20.844C14.7589 20.9976 14.6948 21.1423 14.5924 21.2581C14.49 21.3739 14.3544 21.4553 14.204 21.491C12.7555 21.8356 11.2464 21.8356 9.79797 21.491C9.64757 21.4553 9.5119 21.3739 9.4095 21.2581C9.30711 21.1423 9.24301 20.9976 9.22597 20.844L9.05797 19.32C9.03347 19.1052 8.95892 18.8991 8.84029 18.7183C8.72166 18.5376 8.56228 18.3872 8.37495 18.2792C8.18762 18.1712 7.97757 18.1087 7.76169 18.0967C7.54581 18.0847 7.33013 18.1235 7.13197 18.21L5.72597 18.826C5.58375 18.8883 5.4257 18.9049 5.27363 18.8736C5.12156 18.8422 4.98296 18.7645 4.87697 18.651C3.86468 17.5686 3.11111 16.2707 2.67297 14.855C2.62687 14.7061 2.62829 14.5466 2.67703 14.3986C2.72578 14.2505 2.81943 14.1214 2.94497 14.029L4.18797 13.113C4.36282 12.9848 4.50501 12.8173 4.60302 12.6239C4.70103 12.4305 4.75211 12.2168 4.75211 12C4.75211 11.7832 4.70103 11.5695 4.60302 11.3761C4.50501 11.1827 4.36282 11.0152 4.18797 10.887L2.94497 9.973C2.81961 9.88052 2.72616 9.75129 2.67759 9.60327C2.62903 9.45525 2.62776 9.29577 2.67397 9.147C3.1125 7.73262 3.86606 6.43611 4.87797 5.355C4.98416 5.24149 5.12298 5.16378 5.27526 5.13261C5.42753 5.10144 5.58573 5.11835 5.72797 5.181L7.12797 5.796C7.32699 5.88227 7.54347 5.92066 7.76002 5.90809C7.97657 5.89551 8.18715 5.83232 8.37484 5.7236C8.56254 5.61487 8.72212 5.46363 8.84076 5.28204C8.9594 5.10045 9.0338 4.89356 9.05797 4.678L9.22797 3.152C9.24513 2.99635 9.31058 2.84998 9.41513 2.73341C9.51968 2.61684 9.6581 2.53592 9.81097 2.502C10.528 2.343 11.261 2.259 12.012 2.25ZM12 9C11.2043 9 10.4413 9.31607 9.87865 9.87868C9.31604 10.4413 8.99997 11.2044 8.99997 12C8.99997 12.7956 9.31604 13.5587 9.87865 14.1213C10.4413 14.6839 11.2043 15 12 15C12.7956 15 13.5587 14.6839 14.1213 14.1213C14.6839 13.5587 15 12.7956 15 12C15 11.2044 14.6839 10.4413 14.1213 9.87868C13.5587 9.31607 12.7956 9 12 9Z" fill="#697896"/>
</svg>
