<svg width="24" height="24" viewBox="0 0 24 24" fill="none" xmlns="http://www.w3.org/2000/svg">
<g clip-path="url(#clip0_810_13305)">
<path d="M20.76 10.3793C20.76 16.1116 16.1127 20.7585 10.38 20.7585C4.64728 20.7585 0 16.1116 0 10.3793C0 4.64696 4.64728 0 10.38 0C16.1127 0 20.76 4.64696 20.76 10.3793ZM2.076 10.3793C2.076 14.9651 5.79383 18.6827 10.38 18.6827C14.9662 18.6827 18.684 14.9651 18.684 10.3793C18.684 5.79342 14.9662 2.07585 10.38 2.07585C5.79383 2.07585 2.076 5.79342 2.076 10.3793Z" fill="#697896"/>
<line x1="0.864838" y1="-0.864838" x2="8.20666" y2="-0.864838" transform="matrix(0.729275 0.684221 -0.729275 0.684221 16 18)" stroke="#697896" stroke-width="1.72968" stroke-linecap="round"/>
</g>
<defs>
<clipPath id="clip0_810_13305">
<rect width="24" height="24" fill="white"/>
</clipPath>
</defs>
</svg>
