<svg width="24" height="24" viewBox="0 0 24 24" fill="none" xmlns="http://www.w3.org/2000/svg">
<path d="M18 16.1304C17.2404 16.1304 16.5552 16.4256 16.0356 16.9008L8.91 12.7452C8.9652 12.5196 9 12.2844 9 12.0444C9 11.8044 8.9652 11.5704 8.91 11.3448L15.96 7.22998C16.512 7.75004 17.2416 8.03976 18 8.03998C19.6548 8.03998 21 6.69478 21 5.03998C21 3.38518 19.6548 2.03998 18 2.03998C16.3452 2.03998 15 3.38518 15 5.03998C15 5.27998 15.0348 5.51518 15.09 5.73958L8.04 9.85438C7.48771 9.33484 6.75825 9.0452 6 9.04438C4.3452 9.04438 3 10.3896 3 12.0444C3 13.6992 4.3452 15.0444 6 15.0444C6.75837 15.0442 7.48804 14.7544 8.04 14.2344L15.1656 18.39C15.1131 18.6045 15.0861 18.8244 15.0852 19.0452C15.0854 19.6213 15.2565 20.1845 15.5767 20.6634C15.897 21.1424 16.352 21.5156 16.8844 21.736C17.4167 21.9564 18.0024 22.014 18.5675 21.9015C19.1326 21.7891 19.6516 21.5116 20.059 21.1042C20.4664 20.6968 20.7439 20.1778 20.8564 19.6127C20.9688 19.0476 20.9112 18.4619 20.6908 17.9295C20.4705 17.3972 20.0972 16.9422 19.6183 16.6219C19.1393 16.3017 18.5762 16.1306 18 16.1304Z" fill="#697896"/>
</svg>
