<svg width="24" height="24" viewBox="0 0 24 24" fill="none" xmlns="http://www.w3.org/2000/svg">
<path d="M14.4001 4.80002H18.0001C18.7201 4.80002 19.2001 5.28002 19.2001 6.00002V7.20002H3.6001V6.00002C3.6001 5.28002 4.2001 4.80002 4.8001 4.80002H8.4001C8.6401 3.48002 9.9601 2.40002 11.4001 2.40002C12.8401 2.40002 14.1601 3.48002 14.4001 4.80002ZM9.6001 4.80002H13.2001C12.9601 4.08002 12.1201 3.60002 11.4001 3.60002C10.6801 3.60002 9.8401 4.08002 9.6001 4.80002ZM4.8001 8.40002H18.0001L16.9201 20.52C16.9201 21.12 16.3201 21.6 15.7201 21.6H7.0801C6.4801 21.6 6.0001 21.12 5.8801 20.52L4.8001 8.40002Z" fill="#697896"/>
</svg>
