<svg width="24" height="24" viewBox="0 0 24 24" fill="none" xmlns="http://www.w3.org/2000/svg">
<path d="M21.3975 7.61252C21.18 7.47752 20.9025 7.45502 20.67 7.57502L17.46 9.11252C17.1975 9.24002 17.0325 9.50252 17.0325 9.78752V14.2125C17.0325 14.4975 17.1975 14.7675 17.46 14.8875L20.67 16.425C20.7825 16.4775 20.8875 16.5 21 16.5C21.1425 16.5 21.2775 16.4625 21.3975 16.3875C21.615 16.245 21.75 16.005 21.75 15.75V8.25002C21.75 7.99502 21.615 7.75502 21.3975 7.61252Z" fill="#697896"/>
<path d="M14.5575 6.6225H3.75C2.925 6.6225 2.25 7.2975 2.25 8.1225V15.8775C2.25 16.7025 2.925 17.3775 3.75 17.3775H14.5575C15.3825 17.3775 16.0575 16.7025 16.0575 15.8775V8.1225C16.0575 7.2975 15.3825 6.6225 14.5575 6.6225ZM13.2525 9.87H5.0475C4.635 9.87 4.2975 9.5325 4.2975 9.12C4.2975 8.7075 4.635 8.37 5.0475 8.37H13.2525C13.665 8.37 14.0025 8.7075 14.0025 9.12C14.0025 9.5325 13.665 9.87 13.2525 9.87Z" fill="#697896"/>
</svg>
